<svg width="349" height="124" viewBox="0 0 349 124" fill="none" xmlns="http://www.w3.org/2000/svg">
<g clip-path="url(#clip0_50_387)">
<path d="M191.414 57.6918H187.521H183.596V18.1072H189.725H195.853L203.14 49.4887L210.346 18.1072H216.394H222.442V57.6918H218.549H214.624V24.4026L207.129 57.6918H203.011H198.893L191.414 23.6713V57.6918Z" fill="#060A1C"/>
<path d="M227.975 57.6918V18.1072H257.459V21.6046V25.1338H236.339V33.5436H255.931V36.9297V40.3477H236.339V50.6651H258.392V54.1626V57.6918H227.975Z" fill="#060A1C"/>
<path d="M262.687 18.0913H266.853H279.818C285.319 18.0913 289.501 19.6969 292.364 22.8923C295.227 26.0877 296.659 30.7616 296.659 36.9298C296.659 43.718 295.179 48.8687 292.203 52.398C289.228 55.9272 284.885 57.6918 279.142 57.6918H266.853H262.687V18.0913ZM271.051 50.8718H278.113C281.507 50.8718 284.064 49.7431 285.753 47.4698C287.458 45.1964 288.295 41.7944 288.295 37.2477C288.295 33.1303 287.506 30.0462 285.93 27.9954C284.354 25.9446 281.973 24.9113 278.788 24.9113H271.051V50.8718Z" fill="#060A1C"/>
<path d="M299.795 18.0913H303.961H308.16V57.6759H303.994H299.795V18.0913Z" fill="#060A1C"/>
<path d="M324.502 18.0913H329.36H334.218L348.389 57.6759H343.949H339.51L336.808 49.6318H321.623L319.001 57.6759H314.69H310.347L324.502 18.0913ZM323.923 42.8277H334.556L329.231 26.9144H329.247L323.923 42.8277Z" fill="#060A1C"/>
<path d="M219.305 90.2975C218.791 94.8759 216.989 98.5164 213.868 101.203C210.748 103.89 206.791 105.241 201.982 105.241C196.352 105.241 191.88 103.381 188.567 99.661C185.253 95.941 183.596 90.9175 183.596 84.5744C183.596 78.1041 185.253 72.9852 188.567 69.1857C191.88 65.3862 196.352 63.4944 201.982 63.4944C206.743 63.4944 210.684 64.7662 213.804 67.3098C216.925 69.8534 218.758 73.2872 219.305 77.6431H210.941C210.668 75.5128 209.735 73.8118 208.142 72.5559C206.55 71.3 204.523 70.6641 202.078 70.6641C198.974 70.6641 196.529 71.8882 194.759 74.3364C192.99 76.7846 192.105 80.1867 192.105 84.5267C192.105 88.7554 192.99 92.078 194.743 94.4785C196.496 96.879 198.941 98.0713 202.078 98.0713C204.539 98.0713 206.55 97.3718 208.142 95.9728C209.735 94.5739 210.668 92.6821 210.941 90.2975H219.305Z" fill="#060A1C"/>
<path d="M234.811 64.5754H239.669H244.527L258.698 104.16H254.258H249.819L247.117 96.116H231.932L229.31 104.16H225H220.656L234.811 64.5754ZM234.232 89.2959H244.865L239.54 73.3826H239.557L234.232 89.2959Z" fill="#060A1C"/>
<path d="M262.188 64.5754H266.355H282.375C286.188 64.5754 289.26 65.5929 291.592 67.6118C293.925 69.6308 295.099 72.2857 295.099 75.5924C295.099 79.3918 293.796 82.1739 291.206 83.9385C290.514 84.3995 289.726 84.797 288.858 85.1149C289.34 85.3216 289.791 85.5283 290.193 85.7667C292.477 87.118 293.667 89.3754 293.764 92.5549L293.957 99.0411C293.989 100.329 294.134 101.251 294.359 101.791C294.6 102.332 295.05 102.761 295.726 103.079V104.128H286.477C286.252 103.715 286.075 102.825 285.898 101.473C285.737 100.122 285.641 98.6595 285.625 97.1016L285.576 93.4452C285.544 91.6647 285.013 90.4088 283.984 89.6457C282.954 88.8985 281.249 88.517 278.885 88.517H270.553V104.16H266.387H262.188V64.5754ZM270.553 81.856H280.252C282.408 81.856 284.032 81.4267 285.11 80.5524C286.188 79.678 286.734 78.3744 286.734 76.6098C286.734 74.8611 286.22 73.5575 285.19 72.699C284.161 71.8247 282.617 71.3954 280.574 71.3954H270.553V81.856Z" fill="#060A1C"/>
<path d="M299.908 64.5754H304.074H308.272V104.16H304.106H299.908V64.5754Z" fill="#060A1C"/>
<path d="M335.907 76.4508C335.762 74.559 334.925 73.0805 333.397 71.9677C331.869 70.8708 329.891 70.3144 327.43 70.3144C325.307 70.3144 323.65 70.7754 322.443 71.6975C321.253 72.6195 320.642 73.9072 320.642 75.5605C320.642 76.7369 321.269 77.659 322.524 78.3108C323.762 78.9467 326.384 79.7098 330.406 80.6C336.228 81.8877 340.137 83.3821 342.099 85.0672C344.062 86.7364 345.043 89.4231 345.043 93.1272C345.043 96.8472 343.563 99.7882 340.604 101.966C337.644 104.144 333.639 105.241 328.588 105.241C323.521 105.241 319.564 104.081 316.701 101.76C313.854 99.4385 312.326 96.1477 312.117 91.8713H320.175C320.272 93.9698 321.044 95.5913 322.492 96.72C323.939 97.8487 325.966 98.4211 328.572 98.4211C331.242 98.4211 333.317 97.9918 334.829 97.1334C336.325 96.2749 337.081 95.0985 337.081 93.5882C337.081 92.0939 336.534 90.9969 335.456 90.2975C334.395 89.598 332.159 88.8667 328.701 88.1195C322.347 86.7205 318.1 85.1944 315.961 83.5728C313.838 81.9513 312.776 79.4395 312.776 76.0057C312.776 72.1585 314.176 69.1221 316.991 66.8646C319.805 64.6072 323.618 63.4944 328.411 63.4944C332.899 63.4944 336.55 64.6549 339.365 66.9918C342.18 69.3287 343.74 72.4764 344.046 76.4508H335.907V76.4508Z" fill="#060A1C"/>
<path d="M347.279 11.3031C348.067 12.0661 348.469 13.0041 348.469 14.1169C348.469 15.2138 348.067 16.1518 347.279 16.9149C346.491 17.6779 345.526 18.0595 344.383 18.0595C343.241 18.0595 342.276 17.6779 341.488 16.9149C340.7 16.1518 340.298 15.2138 340.298 14.1169C340.298 13.0041 340.7 12.0661 341.488 11.3031C342.276 10.54 343.241 10.1584 344.383 10.1584C345.526 10.1584 346.491 10.54 347.279 11.3031ZM346.7 11.78C346.072 11.1441 345.3 10.8261 344.383 10.8261C343.467 10.8261 342.695 11.1441 342.067 11.78C341.44 12.4159 341.118 13.1949 341.118 14.1169C341.118 15.039 341.44 15.8179 342.067 16.4379C342.695 17.0738 343.467 17.3918 344.383 17.3918C345.3 17.3918 346.072 17.0738 346.7 16.4379C347.327 15.802 347.649 15.0231 347.649 14.1169C347.649 13.1949 347.327 12.4159 346.7 11.78ZM342.614 11.8277H342.984H344.464C344.963 11.8277 345.349 11.939 345.638 12.1615C345.928 12.3841 346.056 12.6861 346.056 13.0677C346.056 13.4969 345.912 13.8149 345.622 14.0533C345.413 14.2282 345.139 14.3395 344.802 14.3872L346.137 16.3902H345.719H345.3L344.11 14.419H343.338V16.3902H342.968H342.614V11.8277ZM343.338 13.8149H344.319C344.657 13.8149 344.914 13.7513 345.059 13.64C345.22 13.5128 345.3 13.3379 345.3 13.0677C345.3 12.8451 345.22 12.6702 345.059 12.5749C344.898 12.4636 344.657 12.4159 344.319 12.4159H343.338V13.8149Z" fill="#060A1C"/>
<path d="M147.179 50.5538V18.0117H121.282L147.179 50.5538Z" fill="#060A1C"/>
<path d="M44.5077 50.8558V78.1517L0 121.154V77.4205L32.6046 45.9117C37.0442 41.6353 44.5077 44.7353 44.5077 50.8558Z" fill="#060A1C"/>
<path d="M134.279 121.154C141.404 121.154 147.179 115.446 147.179 108.405C147.179 101.363 141.404 95.6548 134.279 95.6548C127.154 95.6548 121.379 101.363 121.379 108.405C121.379 115.446 127.154 121.154 134.279 121.154Z" fill="#060A1C"/>
<path d="M98.8433 24.4502L44.5076 78.1676V121.17L79.6054 86.482C85.766 105.781 101.594 118.722 114.365 121.17V18.0117C108.543 18.0594 102.977 20.3804 98.8433 24.4502Z" fill="#060A1C"/>
<path d="M165.404 0H147.179V18.0118H165.404V0Z" fill="#060A1C"/>
<path d="M193.054 117.53C192.877 118.754 192.411 119.708 191.639 120.391C190.867 121.091 189.886 121.425 188.711 121.425C187.328 121.425 186.234 120.963 185.414 120.026C184.594 119.088 184.191 117.832 184.191 116.242C184.191 114.652 184.61 113.38 185.462 112.442C186.315 111.505 187.457 111.028 188.888 111.028C190.014 111.028 190.947 111.314 191.671 111.886C192.395 112.458 192.829 113.253 192.974 114.255H191.671C191.542 113.603 191.237 113.094 190.754 112.745C190.272 112.395 189.644 112.204 188.872 112.204C187.875 112.204 187.071 112.57 186.475 113.301C185.88 114.032 185.591 115.002 185.591 116.242C185.591 117.546 185.864 118.547 186.411 119.231C186.958 119.914 187.762 120.264 188.808 120.264C189.58 120.264 190.223 120.026 190.738 119.549C191.253 119.072 191.591 118.404 191.751 117.546H193.054V117.53Z" fill="#060A1C"/>
<path d="M195.451 120.312C194.824 119.612 194.518 118.69 194.518 117.561C194.518 116.417 194.824 115.511 195.451 114.811C196.078 114.112 196.883 113.762 197.896 113.762C198.909 113.762 199.73 114.112 200.341 114.811C200.968 115.511 201.274 116.433 201.274 117.561C201.274 118.69 200.968 119.612 200.341 120.312C199.714 121.011 198.909 121.361 197.896 121.361C196.883 121.345 196.062 120.995 195.451 120.312ZM199.424 119.565C199.81 119.072 199.987 118.404 199.987 117.561C199.987 116.719 199.794 116.051 199.424 115.558C199.054 115.066 198.539 114.811 197.896 114.811C197.253 114.811 196.738 115.066 196.368 115.558C195.982 116.051 195.805 116.735 195.805 117.561C195.805 118.388 195.998 119.072 196.368 119.565C196.738 120.057 197.253 120.312 197.896 120.312C198.523 120.312 199.038 120.057 199.424 119.565Z" fill="#060A1C"/>
<path d="M203.059 113.969H203.638H204.217V115.034L204.491 114.684C205.022 114.064 205.681 113.762 206.485 113.762C207.29 113.762 207.901 113.985 208.335 114.414C208.77 114.843 208.995 115.447 208.995 116.242V121.17H208.384H207.772V116.655C207.772 116.019 207.644 115.574 207.402 115.288C207.161 115.002 206.759 114.875 206.196 114.875C205.601 114.875 205.134 115.097 204.797 115.542C204.459 115.988 204.282 116.56 204.282 117.307V121.154H203.671H203.059V113.969V113.969Z" fill="#060A1C"/>
<path d="M213.869 121.154C213.45 121.218 213.145 121.25 212.952 121.25C212.421 121.25 212.035 121.138 211.826 120.9C211.617 120.662 211.504 120.264 211.504 119.692V114.954H210.507V113.969H211.504V111.95H212.727V113.969H213.869V114.954H212.727V119.692C212.727 119.851 212.791 119.978 212.92 120.073C213.048 120.169 213.225 120.216 213.434 120.216H213.869V121.154V121.154Z" fill="#060A1C"/>
<path d="M215.493 111.282H216.748V112.649H215.493V111.282ZM215.509 113.969H216.12H216.732V121.154H216.12H215.509V113.969Z" fill="#060A1C"/>
<path d="M218.968 113.969H219.547H220.126V115.034L220.399 114.684C220.93 114.064 221.589 113.762 222.394 113.762C223.198 113.762 223.809 113.985 224.243 114.414C224.678 114.843 224.903 115.447 224.903 116.242V121.17H224.292H223.68V116.655C223.68 116.019 223.552 115.574 223.311 115.288C223.069 115.002 222.667 114.875 222.104 114.875C221.509 114.875 221.043 115.097 220.705 115.542C220.367 115.988 220.19 116.576 220.19 117.339V121.186H219.579H218.968V113.969V113.969Z" fill="#060A1C"/>
<path d="M228.377 118.611C228.377 119.215 228.49 119.644 228.731 119.914C228.972 120.185 229.342 120.312 229.873 120.312C230.468 120.312 230.935 120.089 231.273 119.644C231.61 119.199 231.787 118.579 231.787 117.816V113.985H232.399H233.01V121.17H232.431H231.852V120.073C231.771 120.201 231.675 120.328 231.578 120.439C231.063 121.059 230.404 121.361 229.616 121.361C228.795 121.361 228.168 121.154 227.766 120.757C227.364 120.359 227.155 119.739 227.155 118.929V114.001H227.766H228.377V118.611V118.611Z" fill="#060A1C"/>
<path d="M235.761 120.312C235.133 119.612 234.828 118.69 234.828 117.561C234.828 116.417 235.133 115.511 235.761 114.811C236.388 114.112 237.192 113.762 238.206 113.762C239.219 113.762 240.039 114.112 240.65 114.811C241.278 115.511 241.583 116.433 241.583 117.561C241.583 118.69 241.278 119.612 240.65 120.312C240.023 121.011 239.219 121.361 238.206 121.361C237.208 121.345 236.388 120.995 235.761 120.312ZM239.75 119.565C240.136 119.072 240.313 118.404 240.313 117.561C240.313 116.719 240.12 116.051 239.75 115.558C239.38 115.066 238.865 114.811 238.222 114.811C237.578 114.811 237.063 115.066 236.693 115.558C236.307 116.051 236.131 116.735 236.131 117.561C236.131 118.388 236.324 119.072 236.693 119.565C237.063 120.057 237.578 120.312 238.222 120.312C238.849 120.312 239.364 120.057 239.75 119.565Z" fill="#060A1C"/>
<path d="M244.656 118.611C244.656 119.215 244.768 119.644 245.009 119.914C245.251 120.185 245.621 120.312 246.152 120.312C246.747 120.312 247.213 120.089 247.551 119.644C247.889 119.199 248.066 118.579 248.066 117.816V113.985H248.677H249.288V121.17H248.709H248.13V120.073C248.05 120.201 247.953 120.328 247.857 120.439C247.342 121.059 246.682 121.361 245.894 121.361C245.074 121.361 244.446 121.154 244.044 120.757C243.642 120.359 243.433 119.739 243.433 118.929V114.001H244.044H244.656V118.611V118.611Z" fill="#060A1C"/>
<path d="M255.69 116.051C255.658 115.654 255.497 115.352 255.191 115.129C254.902 114.907 254.5 114.795 254.017 114.795C253.502 114.795 253.116 114.875 252.859 115.05C252.602 115.225 252.457 115.479 252.457 115.813C252.457 116.067 252.553 116.258 252.73 116.385C252.923 116.512 253.277 116.639 253.84 116.783L255.111 117.085C255.819 117.259 256.317 117.482 256.623 117.784C256.928 118.086 257.073 118.499 257.073 119.024C257.073 119.739 256.816 120.296 256.301 120.709C255.786 121.123 255.079 121.329 254.194 121.329C253.165 121.329 252.409 121.123 251.91 120.725C251.411 120.328 251.122 119.692 251.073 118.833H252.248C252.312 119.342 252.489 119.708 252.795 119.946C253.1 120.169 253.567 120.296 254.194 120.296C254.741 120.296 255.159 120.2 255.449 119.994C255.738 119.787 255.867 119.485 255.867 119.088C255.867 118.833 255.77 118.643 255.593 118.515C255.4 118.388 255.03 118.261 254.467 118.118L253.197 117.816C252.505 117.657 252.023 117.434 251.733 117.132C251.443 116.846 251.299 116.449 251.299 115.924C251.299 115.24 251.54 114.716 252.023 114.318C252.505 113.921 253.165 113.73 254.001 113.73C254.854 113.73 255.513 113.937 256.028 114.334C256.526 114.748 256.8 115.304 256.832 116.019H255.69V116.051Z" fill="#060A1C"/>
<path d="M265.92 121.345C264.955 121.345 264.167 120.979 263.604 120.264C263.041 119.549 262.735 118.579 262.735 117.355C262.735 116.274 263.009 115.399 263.572 114.748C264.135 114.096 264.859 113.762 265.759 113.762C266.644 113.762 267.352 114.144 267.883 114.891L267.979 115.018V111.282H268.59H269.202V121.154H268.623H268.06V120.185L267.899 120.407C267.4 121.027 266.741 121.345 265.92 121.345ZM265.985 114.843C265.293 114.843 264.794 115.066 264.489 115.495C264.167 115.924 264.006 116.608 264.006 117.546C264.006 118.436 264.183 119.119 264.521 119.596C264.859 120.073 265.357 120.312 265.985 120.312C266.58 120.312 267.062 120.089 267.416 119.644C267.786 119.199 267.963 118.627 267.963 117.895C267.963 116.91 267.786 116.162 267.448 115.638C267.111 115.113 266.628 114.843 265.985 114.843Z" fill="#060A1C"/>
<path d="M274.252 121.345C273.223 121.345 272.419 121.027 271.823 120.375C271.228 119.724 270.939 118.833 270.939 117.705C270.939 116.496 271.244 115.542 271.872 114.827C272.499 114.112 273.335 113.762 274.381 113.762C275.33 113.762 276.102 114.112 276.681 114.811C277.26 115.511 277.55 116.433 277.55 117.561L277.534 117.991H272.226C272.274 118.706 272.435 119.247 272.724 119.628C273.062 120.089 273.609 120.312 274.349 120.312C274.815 120.312 275.217 120.185 275.571 119.93C275.925 119.676 276.134 119.342 276.215 118.945H277.421C277.244 119.739 276.874 120.328 276.327 120.741C275.78 121.154 275.105 121.345 274.252 121.345ZM276.295 117.021C276.263 116.353 276.086 115.829 275.796 115.463C275.459 115.05 274.976 114.843 274.349 114.843C273.705 114.843 273.191 115.081 272.805 115.558C272.499 115.924 272.322 116.417 272.258 117.021H276.295Z" fill="#060A1C"/>
<path d="M278.627 113.969H279.335H280.043L281.989 119.851L284 113.969H284.675H285.351L282.633 121.154H281.973H281.314L278.627 113.969Z" fill="#060A1C"/>
<path d="M289.758 121.345C288.729 121.345 287.925 121.027 287.33 120.375C286.734 119.724 286.445 118.833 286.445 117.705C286.445 116.496 286.75 115.542 287.378 114.827C288.005 114.112 288.842 113.762 289.887 113.762C290.836 113.762 291.608 114.112 292.187 114.811C292.766 115.511 293.056 116.433 293.056 117.561L293.04 117.991H287.732C287.78 118.706 287.941 119.247 288.23 119.628C288.568 120.089 289.115 120.312 289.855 120.312C290.321 120.312 290.723 120.185 291.077 119.93C291.431 119.676 291.64 119.342 291.721 118.945H292.927C292.75 119.739 292.38 120.328 291.833 120.741C291.286 121.154 290.611 121.345 289.758 121.345ZM291.785 117.021C291.753 116.353 291.576 115.829 291.286 115.463C290.949 115.05 290.466 114.843 289.839 114.843C289.195 114.843 288.681 115.081 288.295 115.558C287.989 115.924 287.812 116.417 287.748 117.021H291.785Z" fill="#060A1C"/>
<path d="M294.954 111.282H295.565H296.176V121.154H295.565H294.954V111.282Z" fill="#060A1C"/>
<path d="M298.943 120.312C298.316 119.612 298.01 118.69 298.01 117.561C298.01 116.417 298.316 115.511 298.943 114.811C299.57 114.112 300.375 113.762 301.388 113.762C302.401 113.762 303.222 114.112 303.833 114.811C304.46 115.511 304.766 116.433 304.766 117.561C304.766 118.69 304.46 119.612 303.833 120.312C303.206 121.011 302.401 121.361 301.388 121.361C300.375 121.345 299.57 120.995 298.943 120.312ZM302.916 119.565C303.302 119.072 303.479 118.404 303.479 117.561C303.479 116.719 303.286 116.051 302.916 115.558C302.546 115.066 302.031 114.811 301.388 114.811C300.744 114.811 300.23 115.066 299.86 115.558C299.474 116.051 299.297 116.735 299.297 117.561C299.297 118.388 299.49 119.072 299.86 119.565C300.23 120.057 300.744 120.312 301.388 120.312C302.031 120.312 302.546 120.057 302.916 119.565Z" fill="#060A1C"/>
<path d="M306.471 113.969H307.05H307.629V114.986L307.693 114.907C308.224 114.144 308.916 113.762 309.768 113.762C310.717 113.762 311.473 114.08 312.02 114.732C312.567 115.384 312.857 116.258 312.857 117.355C312.857 118.611 312.583 119.58 312.02 120.296C311.457 121.011 310.685 121.361 309.688 121.361C308.868 121.361 308.208 121.043 307.726 120.423L307.677 120.375V124H307.066H306.455V113.969H306.471ZM309.624 120.312C310.267 120.312 310.75 120.073 311.071 119.596C311.393 119.119 311.57 118.42 311.57 117.514C311.57 116.608 311.409 115.956 311.087 115.511C310.766 115.081 310.283 114.859 309.624 114.859C308.948 114.859 308.449 115.097 308.144 115.59C307.838 116.083 307.677 116.846 307.677 117.911C307.677 118.674 307.838 119.262 308.176 119.676C308.53 120.089 309.012 120.312 309.624 120.312Z" fill="#060A1C"/>
<path d="M314.707 113.969H315.286H315.865V115.034L316.122 114.716C316.669 114.08 317.328 113.762 318.084 113.762C318.744 113.762 319.259 113.953 319.645 114.334C319.822 114.509 319.95 114.7 320.047 114.922L320.24 114.668C320.771 114.064 321.398 113.762 322.122 113.762C322.878 113.762 323.473 113.969 323.891 114.382C324.309 114.795 324.519 115.368 324.519 116.131V121.17H323.907H323.296V116.528C323.296 115.988 323.183 115.574 322.958 115.288C322.733 115.002 322.395 114.859 321.961 114.859C321.43 114.859 321.012 115.066 320.69 115.463C320.385 115.876 320.224 116.417 320.224 117.116V121.154H319.613H319.001V116.226C319.001 115.781 318.905 115.431 318.696 115.209C318.487 114.97 318.197 114.859 317.795 114.859C317.248 114.859 316.814 115.081 316.46 115.542C316.106 116.004 315.945 116.592 315.945 117.307V121.154H315.334H314.723V113.969H314.707Z" fill="#060A1C"/>
<path d="M329.65 121.345C328.62 121.345 327.816 121.027 327.221 120.375C326.626 119.724 326.336 118.833 326.336 117.705C326.336 116.496 326.642 115.542 327.269 114.827C327.896 114.112 328.733 113.762 329.778 113.762C330.727 113.762 331.5 114.112 332.079 114.811C332.658 115.511 332.947 116.433 332.947 117.561L332.931 117.991H327.623C327.671 118.706 327.832 119.247 328.122 119.628C328.459 120.089 329.006 120.312 329.746 120.312C330.213 120.312 330.615 120.185 330.969 119.93C331.323 119.676 331.532 119.342 331.612 118.945H332.819C332.642 119.739 332.272 120.328 331.725 120.741C331.178 121.154 330.502 121.345 329.65 121.345ZM331.693 117.021C331.66 116.353 331.483 115.829 331.194 115.463C330.856 115.05 330.374 114.843 329.746 114.843C329.103 114.843 328.588 115.081 328.202 115.558C327.896 115.924 327.719 116.417 327.655 117.021H331.693Z" fill="#060A1C"/>
<path d="M334.829 113.969H335.408H335.987V115.034L336.261 114.684C336.791 114.064 337.451 113.762 338.255 113.762C339.059 113.762 339.671 113.985 340.105 114.414C340.539 114.843 340.765 115.447 340.765 116.242V121.17H340.153H339.542V116.655C339.542 116.019 339.413 115.574 339.172 115.288C338.931 115.002 338.529 114.875 337.966 114.875C337.371 114.875 336.904 115.097 336.566 115.542C336.229 115.988 336.052 116.576 336.052 117.339V121.186H335.44H334.829V113.969V113.969Z" fill="#060A1C"/>
<path d="M345.638 121.154C345.22 121.218 344.914 121.25 344.721 121.25C344.191 121.25 343.804 121.138 343.595 120.9C343.386 120.662 343.274 120.264 343.274 119.692V114.954H342.276V113.969H343.274V111.95H344.496V113.969H345.638V114.954H344.496V119.692C344.496 119.851 344.56 119.978 344.689 120.073C344.818 120.169 344.995 120.216 345.204 120.216H345.638V121.154V121.154Z" fill="#060A1C"/>
<path d="M347.552 119.708H349V121.17H347.552V119.708Z" fill="#060A1C"/>
</g>
<defs>
<clipPath id="clip0_50_387">
<rect width="349" height="124" fill="white"/>
</clipPath>
</defs>
</svg>
