<svg width="25" height="24" viewBox="0 0 25 24" fill="none" xmlns="http://www.w3.org/2000/svg">
<path d="M21.1886 10.3614C21.1718 10.2674 21.0894 10.2 20.9939 10.2H12.5333C12.4228 10.2 12.3333 10.2895 12.3333 10.4V13.6C12.3333 13.7105 12.4228 13.8 12.5333 13.8H17.4196C16.6776 15.8956 14.6836 17.4 12.3333 17.4C9.3511 17.4 6.93325 14.9821 6.93325 12C6.93325 9.01785 9.3511 6.6 12.3333 6.6C13.642 6.6 14.8385 7.0694 15.7726 7.84461C15.8541 7.91225 15.9742 7.90905 16.0491 7.83415L18.3149 5.56839C18.3949 5.48833 18.3928 5.35768 18.3082 5.28238C16.7186 3.8667 14.6294 3 12.3333 3C7.363 3 3.33325 7.02975 3.33325 12C3.33325 16.9703 7.363 21 12.3333 21C17.3035 21 21.3333 16.9703 21.3333 12C21.3333 11.453 21.2822 10.8872 21.1886 10.3614Z" fill="#060A1C"/>
</svg>
