<svg width="25" height="24" viewBox="0 0 25 24" fill="none" xmlns="http://www.w3.org/2000/svg">
<path d="M10.5873 7.40766L10.5876 7.40832C10.7188 7.70083 10.9362 8.23024 11.1096 8.65259L11.1131 8.66094C11.1816 8.82774 11.2433 8.97816 11.2915 9.09391C11.3156 9.15184 11.3357 9.19974 11.3513 9.23596C11.3651 9.26808 11.3721 9.2835 11.3741 9.28796C11.3746 9.28911 11.3748 9.28952 11.3747 9.28931C11.4748 9.48871 11.577 9.81184 11.397 10.1808L10.5873 7.40766ZM10.5873 7.40766C10.4665 7.13959 10.3098 6.92805 10.089 6.80005M10.5873 7.40766L10.089 6.80005M13.9207 13.965C13.8664 13.938 13.7986 13.9087 13.7359 13.8817L13.7269 13.8778L13.7257 13.8773C13.3804 13.7283 12.7218 13.4441 11.9578 12.7639L11.9569 12.7631C11.3106 12.1904 10.8478 11.4832 10.6668 11.1828C10.754 11.0945 10.8475 10.9816 10.923 10.8903L10.9319 10.8795C10.9812 10.8199 11.0256 10.7663 11.0674 10.7184L11.0675 10.7183C11.2252 10.5371 11.2975 10.3871 11.3659 10.2451L11.3697 10.2371L11.3697 10.2371L11.3969 10.1809L10.6211 11.1104L10.5924 11.127L10.5921 11.1272L10.1907 11.3599M13.9207 13.965L13.9115 13.9834C13.916 13.9782 13.9206 13.9728 13.9254 13.9673M13.9207 13.965C13.9207 13.965 13.9207 13.9649 13.9207 13.9649L13.9114 13.9836C13.8992 13.9978 13.888 14.0108 13.8781 14.0223L13.8781 14.0223C13.8653 14.0372 13.8656 14.0333 13.8802 14.0241C13.8802 14.0241 13.8802 14.0241 13.8802 14.0241C13.8807 14.0237 13.8812 14.0234 13.8818 14.023C13.8857 14.0207 13.8903 14.0181 13.8955 14.0155L13.8879 14.0307L13.8879 14.0308L13.698 14.4126M13.9207 13.965C13.9223 13.9658 13.9239 13.9665 13.9254 13.9673M13.9254 13.9673C13.9661 13.9872 13.9883 13.9942 13.9963 13.9963C13.9974 13.9966 13.998 13.9967 13.998 13.9967C13.998 13.9967 13.9838 13.9938 13.9599 13.9966C13.9458 13.9983 13.931 14.0016 13.9164 14.0068C13.9087 14.0095 13.9017 14.0125 13.8956 14.0155L13.888 14.0308L13.888 14.0308L13.698 14.4126M13.9254 13.9673C14.1145 13.747 14.5167 13.2736 14.6576 13.0662M13.698 14.4126C13.9552 14.5406 14.1086 14.5209 14.257 14.3486C14.4054 14.1762 14.9 13.6001 15.0732 13.3441M13.698 14.4126C13.6561 14.3918 13.5992 14.3672 13.5288 14.3368C13.1665 14.1805 12.4496 13.8712 11.6253 13.1373C10.8586 12.4579 10.3391 11.6159 10.1907 11.3599M14.6576 13.0662C14.6569 13.0673 14.6561 13.0685 14.6554 13.0696L15.0732 13.3441M14.6576 13.0662C14.6581 13.0654 14.6586 13.0647 14.6591 13.064L15.0732 13.3441M14.6576 13.0662C14.7953 12.858 14.9957 12.6876 15.2781 12.6544C15.5051 12.6276 15.7132 12.7053 15.8223 12.746L15.8268 12.7477L15.8268 12.7477C15.9729 12.8022 16.3762 12.9933 16.742 13.1693C17.1221 13.3523 17.505 13.5404 17.6358 13.6055L17.6358 13.6055C17.6829 13.629 17.7273 13.6502 17.7717 13.6715L17.5555 14.1224M15.0732 13.3441C15.2414 13.0881 15.4145 13.1275 15.652 13.2161C15.8894 13.3047 17.1558 13.9251 17.413 14.0531C17.4639 14.0784 17.5114 14.1012 17.5555 14.1224M10.1907 11.3599L10.592 11.1271L10.5923 11.127L10.6211 11.1103L10.6904 10.3899C10.6437 10.4435 10.5951 10.5022 10.5467 10.5607C10.4616 10.6636 10.377 10.7658 10.3045 10.838C10.1759 10.9659 10.0423 11.1039 10.1907 11.3599ZM17.5555 14.1224C17.7345 14.2082 17.8561 14.2665 17.9077 14.3535M17.5555 14.1224L17.7717 13.6715L17.7839 13.6774C17.8632 13.7154 17.9587 13.7611 18.04 13.8108C18.125 13.8627 18.2503 13.9509 18.3377 14.0984M17.9077 14.3535L18.3377 14.0984M17.9077 14.3535C17.972 14.4618 17.972 14.9739 17.7593 15.5746M17.9077 14.3535L17.7593 15.5746M17.9077 14.3535L18.3376 14.0982C18.3377 14.0983 18.3377 14.0983 18.3377 14.0984M17.9077 14.3535L8.11763 12.5726M18.3377 14.0984C18.4173 14.2325 18.4338 14.387 18.44 14.4663C18.4484 14.5722 18.4466 14.6933 18.4356 14.822C18.4134 15.0806 18.3513 15.4006 18.2306 15.7415L18.2294 15.7449C18.0626 16.2053 17.6273 16.5749 17.2559 16.8141C16.8781 17.0574 16.4178 17.2604 16.065 17.2934M17.7593 15.5746C17.5417 16.1752 16.4929 16.7513 16.018 16.7956M17.7593 15.5746L7.46993 9.62685C7.46993 10.8707 8.37088 12.0762 8.51814 12.2733L8.52362 12.2806M16.018 16.7956C15.9731 16.7999 15.9283 16.8053 15.8823 16.8108M16.018 16.7956L16.0645 17.2935C16.0646 17.2934 16.0648 17.2934 16.065 17.2934M16.018 16.7956L16.065 17.2934M15.8823 16.8108C15.4471 16.8635 14.8946 16.9303 12.9263 16.1555M15.8823 16.8108L15.9423 17.3072C15.7024 17.3362 15.402 17.3714 14.8965 17.2866C14.4094 17.2049 13.7428 17.0143 12.7431 16.6208M15.8823 16.8108L15.9423 17.3072C15.9895 17.3015 16.0277 17.2969 16.065 17.2934M12.9263 16.1555C10.5009 15.2018 8.89986 12.8354 8.57617 12.357M12.9263 16.1555L12.7431 16.6208M12.9263 16.1555L12.7433 16.6209C12.7432 16.6208 12.7432 16.6208 12.7431 16.6208M8.57617 12.357C8.55062 12.3192 8.53303 12.2932 8.52362 12.2806M8.57617 12.357L8.16205 12.6371L8.13136 12.5919L8.12302 12.5799C8.12251 12.5791 8.12214 12.5786 8.12189 12.5783L8.11763 12.5726M8.57617 12.357L8.16205 12.6371L8.1677 12.6455C8.50149 13.139 10.173 15.61 12.7431 16.6208M8.52362 12.2806L8.12307 12.5799L8.12285 12.5796L8.52362 12.2806ZM8.11763 12.5726L8.1176 12.5725L8.11754 12.5725C8.03841 12.4666 7.75594 12.0886 7.49268 11.5683C7.23279 11.0548 6.96993 10.3608 6.96993 9.62685C6.96993 8.24151 7.66625 7.50184 7.96035 7.19102L7.96035 7.19102C7.97773 7.17265 7.99157 7.15802 8.00369 7.14495C8.00369 7.14495 8.00369 7.14495 8.00369 7.14494L8.11763 12.5726ZM10.089 6.80005C9.87802 6.67777 9.67104 6.67264 9.57637 6.67029M10.089 6.80005L9.57637 6.67029M9.57637 6.67029C9.57326 6.67022 9.57028 6.67014 9.56742 6.67007L9.57637 6.67029ZM8.18301 20.1816C8.0715 20.1212 7.94121 20.1054 7.81851 20.1375L3.37889 21.2971L4.56346 16.9973C4.59906 16.868 4.58128 16.7299 4.51409 16.6139C3.68578 15.1837 3.25014 13.562 3.25073 11.9115V11.9114C3.25073 6.72456 7.49647 2.5 12.7086 2.5C15.2428 2.5 17.6142 3.48164 19.4002 5.25928C21.1856 7.03641 22.1666 9.40027 22.1666 11.9163C22.1666 17.103 17.9209 21.3275 12.7087 21.3275H12.7038C11.1202 21.3275 9.56457 20.93 8.18301 20.1816Z" fill="#060A1C" stroke="#060A1C" stroke-linejoin="round"/>
</svg>
