<svg width="19" height="18" viewBox="0 0 19 18" fill="none" xmlns="http://www.w3.org/2000/svg">
<path d="M18.1887 7.36143C18.1719 7.26744 18.0895 7.2 17.9941 7.2H9.53337C9.42292 7.2 9.33337 7.28954 9.33337 7.4V10.6C9.33337 10.7105 9.42292 10.8 9.53337 10.8H14.4197C13.6777 12.8956 11.6837 14.4 9.33337 14.4C6.35122 14.4 3.93337 11.9822 3.93337 9C3.93337 6.01785 6.35122 3.6 9.33337 3.6C10.6421 3.6 11.8386 4.0694 12.7727 4.84461C12.8543 4.91225 12.9743 4.90905 13.0492 4.83415L15.315 2.56839C15.395 2.48833 15.3929 2.35768 15.3083 2.28238C13.7187 0.866697 11.6295 0 9.33337 0C4.36312 0 0.333374 4.02975 0.333374 9C0.333374 13.9703 4.36312 18 9.33337 18C14.3036 18 18.3334 13.9703 18.3334 9C18.3334 8.45301 18.2823 7.88715 18.1887 7.36143Z" fill="#FEFEFE"/>
</svg>
