<svg width="21" height="20" viewBox="0 0 21 20" fill="none" xmlns="http://www.w3.org/2000/svg">
<path d="M8.58725 5.40766L8.58755 5.40832C8.71882 5.70083 8.93621 6.23024 9.10964 6.65259L9.11307 6.66095C9.18156 6.82774 9.24333 6.97816 9.29149 7.09391C9.31559 7.15184 9.33573 7.19974 9.35128 7.23596C9.36506 7.26807 9.37205 7.2835 9.37407 7.28795C9.3746 7.28911 9.37478 7.28952 9.37467 7.28931C9.47481 7.48871 9.57698 7.81184 9.39696 8.18078L8.58725 5.40766ZM8.58725 5.40766C8.46649 5.13959 8.30979 4.92805 8.08897 4.80005M8.58725 5.40766L8.08897 4.80005M11.9207 11.965C11.8664 11.938 11.7986 11.9087 11.7359 11.8817L11.7269 11.8778L11.7257 11.8773C11.3804 11.7283 10.7218 11.4441 9.95779 10.7639L9.95693 10.7631C9.31063 10.1904 8.84779 9.48318 8.6668 9.18277C8.754 9.09454 8.84747 8.98156 8.92298 8.89029L8.93193 8.87946C8.98123 8.8199 9.02565 8.76627 9.06736 8.7184L9.06746 8.71827C9.22518 8.53714 9.29745 8.3871 9.36586 8.24506L9.36971 8.23707L9.36972 8.23706L9.39691 8.18086L8.6211 9.1104L8.59238 9.12705L8.59212 9.1272L8.19067 9.35991M11.9207 11.965L11.9115 11.9834C11.916 11.9782 11.9206 11.9728 11.9254 11.9673M11.9207 11.965C11.9207 11.965 11.9207 11.9649 11.9207 11.9649L11.9114 11.9836C11.8992 11.9978 11.888 12.0108 11.8781 12.0223L11.8781 12.0223C11.8653 12.0372 11.8656 12.0333 11.8802 12.0241C11.8802 12.0241 11.8802 12.0241 11.8802 12.0241C11.8807 12.0237 11.8812 12.0234 11.8818 12.023C11.8857 12.0207 11.8903 12.0181 11.8955 12.0155L11.8879 12.0307L11.8879 12.0308L11.698 12.4126M11.9207 11.965C11.9223 11.9658 11.9239 11.9665 11.9254 11.9673M11.9254 11.9673C11.9661 11.9872 11.9883 11.9942 11.9963 11.9963C11.9974 11.9966 11.998 11.9967 11.998 11.9967C11.998 11.9967 11.9838 11.9938 11.9599 11.9966C11.9458 11.9983 11.931 12.0016 11.9164 12.0068C11.9087 12.0095 11.9017 12.0125 11.8956 12.0155L11.888 12.0308L11.888 12.0308L11.698 12.4126M11.9254 11.9673C12.1145 11.747 12.5167 11.2736 12.6576 11.0662M11.698 12.4126C11.9552 12.5406 12.1086 12.5209 12.257 12.3486C12.4054 12.1762 12.9 11.6001 13.0732 11.3441M11.698 12.4126C11.6561 12.3918 11.5992 12.3672 11.5288 12.3368C11.1665 12.1805 10.4496 11.8712 9.62532 11.1373C8.85856 10.4579 8.33914 9.6159 8.19067 9.35991M12.6576 11.0662C12.6569 11.0673 12.6561 11.0685 12.6554 11.0696L13.0732 11.3441M12.6576 11.0662C12.6581 11.0654 12.6586 11.0647 12.6591 11.064L13.0732 11.3441M12.6576 11.0662C12.7953 10.858 12.9957 10.6876 13.2781 10.6544C13.5051 10.6276 13.7132 10.7053 13.8223 10.746L13.8268 10.7477L13.8268 10.7477C13.9729 10.8022 14.3762 10.9933 14.742 11.1693C15.1221 11.3523 15.505 11.5404 15.6358 11.6055L15.6358 11.6055C15.6829 11.629 15.7273 11.6502 15.7717 11.6715L15.5555 12.1224M13.0732 11.3441C13.2414 11.0881 13.4145 11.1275 13.652 11.2161C13.8894 11.3047 15.1558 11.9251 15.413 12.0531C15.4639 12.0784 15.5114 12.1012 15.5555 12.1224M8.19067 9.35991L8.59203 9.12711L8.59229 9.12696L8.62107 9.11027L8.69037 8.38994C8.64373 8.44348 8.59514 8.50219 8.54673 8.56069C8.46159 8.66358 8.37699 8.7658 8.30449 8.83802C8.17589 8.96593 8.04227 9.10391 8.19067 9.35991ZM15.5555 12.1224L15.7717 11.6715L15.7839 11.6774C15.8632 11.7154 15.9587 11.7611 16.04 11.8108C16.125 11.8627 16.2503 11.9509 16.3377 12.0984M15.5555 12.1224C15.7345 12.2082 15.8561 12.2665 15.9077 12.3535M16.3377 12.0984L15.7593 13.5746C15.972 12.9739 15.972 12.4618 15.9077 12.3535M16.3377 12.0984C16.4173 12.2325 16.4338 12.387 16.44 12.4663C16.4484 12.5722 16.4466 12.6933 16.4356 12.822C16.4134 13.0806 16.3513 13.4006 16.2306 13.7415L16.2294 13.7449C16.0626 14.2053 15.6273 14.5749 15.2559 14.8141C14.8781 15.0574 14.4178 15.2604 14.065 15.2934M16.3377 12.0984C16.3377 12.0983 16.3377 12.0983 16.3376 12.0982L15.9077 12.3535M15.9077 12.3535L14.065 15.2934M14.065 15.2934C14.0277 15.2969 13.9895 15.3015 13.9423 15.3072L13.8823 14.8108L13.9423 15.3072C13.7024 15.3362 13.402 15.3714 12.8965 15.2866C12.4094 15.2049 11.7428 15.0143 10.7431 14.6208C8.17302 13.61 6.50149 11.139 6.1677 10.6455L6.16205 10.6371L6.57617 10.357L6.16205 10.6371L6.13136 10.5919L6.12302 10.5799C6.12251 10.5791 6.12214 10.5786 6.12189 10.5783L6.11763 10.5726L6.1176 10.5725L6.11754 10.5725C6.03841 10.4666 5.75594 10.0886 5.49268 9.56835C5.23279 9.05476 4.96993 8.36081 4.96993 7.62685C4.96993 6.24151 5.66625 5.50184 5.96035 5.19102L5.96035 5.19102C5.97773 5.17265 5.99157 5.15802 6.00369 5.14495C6.00369 5.14495 6.00369 5.14495 6.00369 5.14494L14.065 15.2934ZM8.08897 4.80005C7.87802 4.67777 7.67104 4.67264 7.57637 4.67029M8.08897 4.80005L7.57637 4.67029M7.57637 4.67029C7.57326 4.67022 7.57028 4.67014 7.56742 4.67007L7.57637 4.67029ZM6.18301 18.1816C6.0715 18.1212 5.94121 18.1054 5.81851 18.1375L1.37889 19.2971L2.56346 14.9973C2.59906 14.868 2.58128 14.7299 2.51409 14.6139C1.68578 13.1837 1.25014 11.562 1.25073 9.91154V9.91136C1.25073 4.72456 5.49647 0.5 10.7086 0.5C13.2428 0.5 15.6142 1.48164 17.4002 3.25928C19.1856 5.03641 20.1666 7.40027 20.1666 9.91626C20.1666 15.103 15.9209 19.3275 10.7087 19.3275H10.7038C9.12016 19.3275 7.56457 18.93 6.18301 18.1816Z" fill="#FEFEFE" stroke="#FEFEFE" stroke-linejoin="round"/>
</svg>
